<svg xmlns="http://www.w3.org/2000/svg" viewBox="0 0 32 32" width="32" height="32">
  <defs>
    <linearGradient id="grad" x1="0%" y1="0%" x2="100%" y2="100%">
      <stop offset="0%" style="stop-color:#4f46e5;stop-opacity:1" />
      <stop offset="100%" style="stop-color:#7c3aed;stop-opacity:1" />
    </linearGradient>
  </defs>

  <!-- Robot head -->
  <rect x="8" y="8" width="16" height="12" rx="2" fill="url(#grad)" stroke="#1e1b4b" stroke-width="1"/>

  <!-- Robot eyes -->
  <circle cx="12" cy="13" r="1.5" fill="#ffffff"/>
  <circle cx="20" cy="13" r="1.5" fill="#ffffff"/>

  <!-- Robot mouth -->
  <rect x="14" y="16" width="4" height="1" rx="0.5" fill="#ffffff"/>

  <!-- Robot antenna -->
  <line x1="16" y1="8" x2="16" y2="5" stroke="#1e1b4b" stroke-width="1.5" stroke-linecap="round"/>
  <circle cx="16" cy="4" r="1" fill="#ef4444"/>

  <!-- Gear overlay -->
  <g transform="translate(22,22) scale(0.4)">
    <path d="M12,2A2,2 0 0,1 14,4V8L16.5,9.5L19,7L20.4,8.4L18,11L19.5,13.5H24A2,2 0 0,1 24,17H19.5L18,19.5L20.4,22.6L19,24L16.5,21.5L14,23V24A2,2 0 0,1 10,24V23L7.5,21.5L5,24L3.6,22.6L6,19.5L4.5,17H2A2,2 0 0,1 2,13H4.5L6,10.5L3.6,7.4L5,6L7.5,8.5L10,7V4A2,2 0 0,1 12,2M12,8A4,4 0 0,0 8,12A4,4 0 0,0 12,16A4,4 0 0,0 16,12A4,4 0 0,0 12,8M12,10A2,2 0 0,1 14,12A2,2 0 0,1 12,14A2,2 0 0,1 10,12A2,2 0 0,1 12,10Z" fill="#fbbf24" stroke="#92400e" stroke-width="0.5"/>
  </g>
</svg>